<svg xmlns="http://www.w3.org/2000/svg" width="800" height="1131" viewBox="0 0 800 1131" fill="none"><rect width="800" height="1131" rx="16" fill="#F8FAFC"/><rect x="40" y="40" width="720" height="1051" rx="12" fill="#FFFFFF" stroke="#E2E8F0"/><rect x="100" y="140" width="600" height="80" rx="8" fill="#E2E8F0"/><rect x="100" y="260" width="600" height="32" rx="6" fill="#E2E8F0"/><rect x="100" y="310" width="600" height="32" rx="6" fill="#E2E8F0"/><rect x="100" y="360" width="600" height="32" rx="6" fill="#E2E8F0"/><rect x="100" y="430" width="280" height="280" rx="12" fill="#F1F5F9"/><circle cx="640" cy="720" r="72" fill="#E2E8F0"/><rect x="100" y="740" width="600" height="24" rx="6" fill="#E2E8F0"/><rect x="100" y="780" width="500" height="24" rx="6" fill="#E2E8F0"/><rect x="100" y="820" width="560" height="24" rx="6" fill="#E2E8F0"/><rect x="100" y="860" width="420" height="24" rx="6" fill="#E2E8F0"/><rect x="100" y="1000" width="200" height="8" rx="4" fill="#E2E8F0"/></svg>
